<?xml version="1.0" standalone="no"?>
<!DOCTYPE svg PUBLIC "-//W3C//DTD SVG 1.1//EN" "http://www.w3.org/Graphics/SVG/1.1/DTD/svg11.dtd" >
<svg xmlns="http://www.w3.org/2000/svg">
<metadata></metadata>
<defs>
<font id="OctinSportsRgRegular" horiz-adv-x="1300" >
<font-face units-per-em="2048" ascent="1638" descent="-410" />
<missing-glyph horiz-adv-x="655" />
<glyph unicode="&#x28;C&#x29;" horiz-adv-x="1286" d="M92 217v1010l207 207h688l207 -207v-1010l-219 -217h-666zM176 248l164 -164h604l164 164v946l-154 154h-624l-154 -154v-946zM377 440v566l127 124h287l124 -124v-170h-86v137l-71 71h-221l-74 -71v-504l84 -82h201l81 82v145h86v-174l-137 -139h-262z" />
<glyph unicode="&#x28;R&#x29;" horiz-adv-x="1159" d="M92 524v703l205 207h565l205 -207v-703l-217 -217h-541q-24 24 -68.5 68t-80.5 80t-68 69zM176 553l162 -162h481l164 162v641l-154 154h-501l-152 -154v-641zM344 559v84h68v479h-68v84h361l92 -90v-196l-95 -91h-53l96 -186h78v-84h-217v84h45l-94 184h-61v-184h53v-84 h-205zM496 911h178l39 39v131l-39 41h-178v-211z" />
<glyph horiz-adv-x="0" />
<glyph horiz-adv-x="2048" />
<glyph unicode=" "  horiz-adv-x="655" />
<glyph unicode="&#x09;" horiz-adv-x="655" />
<glyph unicode="&#xa0;" horiz-adv-x="655" />
<glyph unicode="!" horiz-adv-x="489" d="M145 1434h199l-33 -992h-133zM160 0v205h170v-205h-170z" />
<glyph unicode="&#x22;" horiz-adv-x="532" d="M98 1495h117l-16 -459h-84zM317 1495h117l-16 -459h-82z" />
<glyph unicode="#" horiz-adv-x="950" d="M63 469v115h125l31 295h-113v114h125l50 441h131l-50 -441h277l49 441h131l-49 -441h115v-114h-127l-31 -295h115v-115h-127l-49 -469h-131l49 469h-277l-49 -469h-131l49 469h-113zM319 584h277l31 295h-277z" />
<glyph unicode="$" horiz-adv-x="1003" d="M92 348v203h152v-141l108 -109h326l80 82v240l-60 59h-460l-140 139v336l160 160h197v117h92v-117h164l188 -187v-161h-154v94l-100 102h-319l-74 -73v-209l59 -62h463l137 -133v-369l-172 -169h-192v-150h-92v150h-164z" />
<glyph unicode="%" horiz-adv-x="1435" d="M92 895v430l111 109h307l108 -109v-430l-116 -117h-291zM207 948l55 -53h184l56 53v320l-47 47h-199l-49 -47v-320zM244 0l811 1434h125l-811 -1434h-125zM817 119v428l109 108h307l110 -108v-430l-118 -117h-289zM932 172l55 -55h184l56 55v317l-47 50h-199l-49 -50 v-317z" />
<glyph unicode="&#x26;" horiz-adv-x="1124" d="M72 190v342l235 230l-176 225v297l148 150h276l147 -150v-326l-213 -215l238 -305l133 224h148l-193 -338l254 -324h-170l-166 207l-129 -207h-342q-97 93 -190 190zM229 250l101 -98h205l106 176l-246 315l-166 -164v-229zM276 1020l134 -170l157 162v202l-65 66h-160 l-66 -66v-194z" />
<glyph unicode="'" horiz-adv-x="301" d="M92 1495h117l-16 -459h-84z" />
<glyph unicode="(" horiz-adv-x="473" d="M92 129v1174l174 335h115l-180 -350v-1151l176 -342h-111z" />
<glyph unicode=")" horiz-adv-x="473" d="M92 1638h117l172 -335v-1174l-172 -334h-113l176 342v1151z" />
<glyph unicode="*" horiz-adv-x="768" d="M92 1184l244 67l-158 191l70 55l137 -211l135 209l74 -49l-156 -197l238 -61l-23 -88l-235 90l14 -250h-92l14 252l-231 -92z" />
<glyph unicode="+" horiz-adv-x="829" d="M92 670v104h270v270h105v-270h270v-104h-270v-271h-105v271h-270z" />
<glyph unicode="," horiz-adv-x="391" d="M57 -248l74 297v119h168v-156l-170 -291z" />
<glyph unicode="-" horiz-adv-x="532" d="M20 674v123h496v-123h-496z" />
<glyph unicode="." horiz-adv-x="354" d="M92 0v205h170v-205h-170z" />
<glyph unicode="/" horiz-adv-x="536" d="M-31 -195l451 1686h112l-450 -1686h-113z" />
<glyph unicode="0" horiz-adv-x="1120" d="M92 231v981l221 222h494l221 -222v-981l-231 -231h-473zM268 301l125 -125h334l125 125v840l-117 116h-350l-117 -116v-840z" />
<glyph unicode="1" horiz-adv-x="706" d="M92 1288l248 146h125v-1258h149v-176h-491v176h164v1047l-140 -78z" />
<glyph unicode="2" horiz-adv-x="1093" d="M92 0v643l162 160h485l76 74v276l-102 102h-328l-102 -102v-127h-179v205l203 203h484l202 -203v-428l-166 -166h-483l-76 -76v-385h555v197h176v-373h-907z" />
<glyph unicode="3" horiz-adv-x="1093" d="M92 213v256h176v-182l111 -111h336l108 111v286l-102 103h-365v155h359l102 103v219l-102 104h-336l-103 -104v-121h-176v199l203 203h488l200 -203v-334l-131 -131l141 -141v-412l-213 -213h-483z" />
<glyph unicode="4" horiz-adv-x="1050" d="M51 418v133l592 883h193v-867h149v-149h-149v-273h149v-145h-516v145h184v273h-602zM227 567h426v629z" />
<glyph unicode="5" horiz-adv-x="1093" d="M92 213v272h176v-198l111 -111h336l108 111v346l-73 76h-644v725h873v-363h-176v186h-520v-383h555l163 -159v-502l-213 -213h-483z" />
<glyph unicode="6" horiz-adv-x="1093" d="M92 213v1018l203 203h491l201 -203v-203h-176v125l-104 104h-334l-105 -104v-287h570l163 -159v-494l-213 -213h-483zM268 287l111 -111h336l108 111v338l-73 75h-482v-413z" />
<glyph unicode="7" horiz-adv-x="985" d="M57 1032v402h858v-285l-464 -1149h-193l467 1130v140h-516v-238h-152z" />
<glyph unicode="8" horiz-adv-x="1093" d="M92 213v412l141 141l-133 131v334l203 203h488l200 -203v-334l-131 -131l141 -141v-412l-213 -213h-483zM268 287l111 -111h336l108 111v293l-102 102h-348l-105 -102v-293zM276 940l103 -102h336l102 102v213l-102 104h-336l-103 -104v-213z" />
<glyph unicode="9" horiz-adv-x="1089" d="M92 809v414l211 211h483l211 -211v-1018l-204 -205h-488l-207 205v270h178v-194l103 -105h340l102 105v364h-563zM268 885l78 -76h475v338l-110 110h-332l-111 -110v-262z" />
<glyph unicode=":" horiz-adv-x="354" d="M92 311v207h170v-207h-170zM92 868v205h170v-205h-170z" />
<glyph unicode=";" horiz-adv-x="380" d="M47 -248l74 297v119h168v-156l-170 -291zM115 743v205h170v-205h-170z" />
<glyph unicode="&#x3c;" horiz-adv-x="866" d="M92 674v121l682 354v-131l-553 -285l553 -284v-132z" />
<glyph unicode="=" horiz-adv-x="829" d="M92 545v104h645v-104h-645zM92 813v102h645v-102h-645z" />
<glyph unicode="&#x3e;" horiz-adv-x="866" d="M92 317v132l553 284l-553 285v131l682 -354v-121z" />
<glyph unicode="?" horiz-adv-x="989" d="M80 1034v197l201 203h432l202 -203v-277l-378 -381v-143h-150v215l350 352v164l-102 103h-291l-102 -103v-127h-162zM379 0v205h168v-205h-168z" />
<glyph unicode="@" horiz-adv-x="1134" d="M92 254v928l252 252h555l143 -144v-737l-108 -109h-340l-94 97v413l80 80h327v185l-69 69h-435l-151 -151v-809l151 -152h598v-176h-655zM621 614l55 -55h176l55 55v306h-239l-47 -50v-256z" />
<glyph unicode="A" d="M31 0v176h157l295 1081h-161v177h458l328 -1258h162v-176h-475v176h127l-72 260h-432l-72 -260h123v-176h-438zM442 547h377l-188 696z" />
<glyph unicode="B" horiz-adv-x="1196" d="M92 0v176h150v1081h-150v177h799l203 -203v-338l-131 -133l141 -139v-408l-215 -213h-797zM420 176h397l109 111v286l-103 103h-403v-500zM420 831h397l103 103v219l-103 104h-397v-426z" />
<glyph unicode="C" horiz-adv-x="1101" d="M92 250v944l238 240h477l203 -203v-277h-179v199l-102 102h-330l-131 -131v-811l138 -137h317l108 109v227h179v-299l-215 -213h-453z" />
<glyph unicode="D" horiz-adv-x="1243" d="M92 0v176h150v1081h-150v177h780l277 -277v-868l-287 -289h-770zM420 176h381l172 172v744l-164 165h-389v-1081z" />
<glyph unicode="E" horiz-adv-x="1191" d="M92 0v176h150v1079h-150v179h1008v-371h-150v192h-532v-436h362v96h127v-325h-127v96h-362v-510h534v193h150v-369h-1010z" />
<glyph unicode="F" horiz-adv-x="1159" d="M92 0v176h150v1079h-150v179h1008v-373h-150v194h-532v-467h418v97h127v-326h-127v96h-418v-479h164v-176h-490z" />
<glyph unicode="G" horiz-adv-x="1114" d="M92 252v942l240 240h493l203 -203v-254h-176v176l-102 104h-351l-131 -131v-813l138 -137h294l152 152v307h-266v125h442v-760h-170v162l-162 -162h-352z" />
<glyph unicode="H" horiz-adv-x="1384" d="M92 0v176h150v1081h-150v177h457v-177h-129v-430h545v430h-129v177h456v-177h-151v-1081h151v-176h-456v176h129v508h-545v-508h129v-176h-457z" />
<glyph unicode="I" horiz-adv-x="743" d="M133 0v176h150v1081h-150v177h477v-177h-149v-1081h149v-176h-477z" />
<glyph unicode="J" horiz-adv-x="1095" d="M92 213v326h176v-252l111 -111h237l138 137v944h-207v177h534v-177h-149v-1005l-252 -252h-375z" />
<glyph unicode="K" horiz-adv-x="1284" d="M92 0v176h150v1081h-150v177h463v-177h-131v-524l457 524h-119v177h461v-177h-170l-303 -346l335 -735h138v-176h-461v176h137l-278 602l-197 -221v-381h133v-176h-465z" />
<glyph unicode="L" horiz-adv-x="1134" d="M92 0v176h150v1081h-150v177h483v-177h-155v-1081h520v227h152v-403h-1000z" />
<glyph unicode="M" horiz-adv-x="1513" d="M92 0v176h150v1081h-150v177h363l309 -568l309 568h348v-177h-149v-1081h149v-176h-483v176h164v1006l-299 -543h-92l-299 543v-1006h163v-176h-483z" />
<glyph unicode="N" horiz-adv-x="1366" d="M92 0v176h150v1079h-150v179h383l541 -1094v915h-129v179h436v-179h-152v-1255h-174l-600 1186v-1010h129v-176h-434z" />
<glyph unicode="O" horiz-adv-x="1120" d="M92 231v981l221 222h494l221 -222v-981l-231 -231h-473zM268 301l125 -125h334l125 125v840l-117 116h-350l-117 -116v-840z" />
<glyph unicode="P" horiz-adv-x="1200" d="M92 0v176h150v1081h-150v177h826l219 -222v-448l-219 -221h-498v-367h164v-176h-492zM420 705h424l117 116v320l-117 116h-424v-552z" />
<glyph unicode="Q" horiz-adv-x="1122" d="M92 231v981l219 222h496l221 -222v-981l-233 -231h-154v-201h-149v201h-168zM268 299l123 -123h98v180h152v-180h86l123 123v840l-117 116h-348l-117 -116v-840z" />
<glyph unicode="R" horiz-adv-x="1214" d="M92 0v176h150v1079h-150v179h821l201 -203v-406l-194 -194h-107l229 -455h132v-176h-441v176h123l-229 455h-209v-455h125v-176h-451zM418 766h418l102 102v285l-102 102h-418v-489z" />
<glyph unicode="S" horiz-adv-x="1079" d="M84 213v262h176v-188l111 -111h336l108 111v297l-74 75h-491l-166 164v408l203 203h491l201 -203v-203h-176v125l-105 104h-333l-105 -104v-254l78 -74h491l164 -159v-453l-213 -213h-483z" />
<glyph unicode="T" horiz-adv-x="1126" d="M45 1014v420h1040v-420h-151v252h-281v-1090h170v-176h-516v176h170v1090h-280v-252h-152z" />
<glyph unicode="U" horiz-adv-x="1271" d="M35 1257v177h457v-177h-130v-956l123 -125h299l123 125v956h-131v177h455v-177h-152v-1038l-217 -219h-459l-219 219v1038h-149z" />
<glyph unicode="V" d="M31 1257v177h475v-177h-125l289 -1040l282 1040h-121v177h439v-177h-152l-352 -1257h-242l-344 1257h-149z" />
<glyph unicode="W" horiz-adv-x="1984" d="M31 1257v177h463v-177h-123l243 -1040l271 1040h-148v177h555v-177h-149l272 -1040l240 1040h-117v177h416v-177h-148l-295 -1257h-235l-281 1079l-284 -1079h-246l-287 1257h-147z" />
<glyph unicode="X" horiz-adv-x="1210" d="M31 0v176h121l344 574l-299 507h-150v177h473v-177h-123l242 -405l225 405h-114v177h413v-177h-133l-317 -530l329 -551h138v-176h-490v176h144l-267 451l-248 -451h140v-176h-428z" />
<glyph unicode="Y" horiz-adv-x="1163" d="M31 1257v177h440v-177h-115l240 -538l242 538h-115v177h410v-177h-140l-323 -677v-404h155v-176h-489v176h156v404l-326 677h-135z" />
<glyph unicode="Z" horiz-adv-x="1069" d="M53 0v145l709 1119h-553v-220h-152v390h947v-148l-711 -1116h567v217h150v-387h-957z" />
<glyph unicode="[" horiz-adv-x="518" d="M92 -205v1843h334v-82h-225v-1679h225v-82h-334z" />
<glyph unicode="\" horiz-adv-x="536" d="M4 1491h113l450 -1686h-112z" />
<glyph unicode="]" horiz-adv-x="518" d="M92 -123h225v1679h-225v82h334v-1843h-334v82z" />
<glyph unicode="^" horiz-adv-x="722" d="M92 1014l223 420h93l223 -420h-119l-150 297l-151 -297h-119z" />
<glyph unicode="_" horiz-adv-x="921" d="M0 -76h928v-76h-928v76z" />
<glyph unicode="`" horiz-adv-x="684" d="M92 1745v92l500 -123v-90z" />
<glyph unicode="a" d="M31 0v176h157l295 1081h-161v177h458l328 -1258h162v-176h-475v176h127l-72 260h-432l-72 -260h123v-176h-438zM442 547h377l-188 696z" />
<glyph unicode="b" horiz-adv-x="1196" d="M92 0v176h150v1081h-150v177h799l203 -203v-338l-131 -133l141 -139v-408l-215 -213h-797zM420 176h397l109 111v286l-103 103h-403v-500zM420 831h397l103 103v219l-103 104h-397v-426z" />
<glyph unicode="c" horiz-adv-x="1101" d="M92 250v944l238 240h477l203 -203v-277h-179v199l-102 102h-330l-131 -131v-811l138 -137h317l108 109v227h179v-299l-215 -213h-453z" />
<glyph unicode="d" horiz-adv-x="1243" d="M92 0v176h150v1081h-150v177h780l277 -277v-868l-287 -289h-770zM420 176h381l172 172v744l-164 165h-389v-1081z" />
<glyph unicode="e" horiz-adv-x="1191" d="M92 0v176h150v1079h-150v179h1008v-371h-150v192h-532v-436h362v96h127v-325h-127v96h-362v-510h534v193h150v-369h-1010z" />
<glyph unicode="f" horiz-adv-x="1159" d="M92 0v176h150v1079h-150v179h1008v-373h-150v194h-532v-467h418v97h127v-326h-127v96h-418v-479h164v-176h-490z" />
<glyph unicode="g" horiz-adv-x="1114" d="M92 252v942l240 240h493l203 -203v-254h-176v176l-102 104h-351l-131 -131v-813l138 -137h294l152 152v307h-266v125h442v-760h-170v162l-162 -162h-352z" />
<glyph unicode="h" horiz-adv-x="1384" d="M92 0v176h150v1081h-150v177h457v-177h-129v-430h545v430h-129v177h456v-177h-151v-1081h151v-176h-456v176h129v508h-545v-508h129v-176h-457z" />
<glyph unicode="i" horiz-adv-x="743" d="M133 0v176h150v1081h-150v177h477v-177h-149v-1081h149v-176h-477z" />
<glyph unicode="j" horiz-adv-x="1095" d="M92 213v326h176v-252l111 -111h237l138 137v944h-207v177h534v-177h-149v-1005l-252 -252h-375z" />
<glyph unicode="k" horiz-adv-x="1284" d="M92 0v176h150v1081h-150v177h463v-177h-131v-524l457 524h-119v177h461v-177h-170l-303 -346l335 -735h138v-176h-461v176h137l-278 602l-197 -221v-381h133v-176h-465z" />
<glyph unicode="l" horiz-adv-x="1134" d="M92 0v176h150v1081h-150v177h483v-177h-155v-1081h520v227h152v-403h-1000z" />
<glyph unicode="m" horiz-adv-x="1513" d="M92 0v176h150v1081h-150v177h363l309 -568l309 568h348v-177h-149v-1081h149v-176h-483v176h164v1006l-299 -543h-92l-299 543v-1006h163v-176h-483z" />
<glyph unicode="n" horiz-adv-x="1366" d="M92 0v176h150v1079h-150v179h383l541 -1094v915h-129v179h436v-179h-152v-1255h-174l-600 1186v-1010h129v-176h-434z" />
<glyph unicode="o" horiz-adv-x="1120" d="M92 231v981l221 222h494l221 -222v-981l-231 -231h-473zM268 301l125 -125h334l125 125v840l-117 116h-350l-117 -116v-840z" />
<glyph unicode="p" horiz-adv-x="1200" d="M92 0v176h150v1081h-150v177h826l219 -222v-448l-219 -221h-498v-367h164v-176h-492zM420 705h424l117 116v320l-117 116h-424v-552z" />
<glyph unicode="q" horiz-adv-x="1122" d="M92 231v981l219 222h496l221 -222v-981l-233 -231h-154v-201h-149v201h-168zM268 299l123 -123h98v180h152v-180h86l123 123v840l-117 116h-348l-117 -116v-840z" />
<glyph unicode="r" horiz-adv-x="1214" d="M92 0v176h150v1079h-150v179h821l201 -203v-406l-194 -194h-107l229 -455h132v-176h-441v176h123l-229 455h-209v-455h125v-176h-451zM418 766h418l102 102v285l-102 102h-418v-489z" />
<glyph unicode="s" horiz-adv-x="1079" d="M84 213v262h176v-188l111 -111h336l108 111v297l-74 75h-491l-166 164v408l203 203h491l201 -203v-203h-176v125l-105 104h-333l-105 -104v-254l78 -74h491l164 -159v-453l-213 -213h-483z" />
<glyph unicode="t" horiz-adv-x="1126" d="M45 1014v420h1040v-420h-151v252h-281v-1090h170v-176h-516v176h170v1090h-280v-252h-152z" />
<glyph unicode="u" horiz-adv-x="1271" d="M35 1257v177h457v-177h-130v-956l123 -125h299l123 125v956h-131v177h455v-177h-152v-1038l-217 -219h-459l-219 219v1038h-149z" />
<glyph unicode="v" d="M31 1257v177h475v-177h-125l289 -1040l282 1040h-121v177h439v-177h-152l-352 -1257h-242l-344 1257h-149z" />
<glyph unicode="w" horiz-adv-x="1984" d="M31 1257v177h463v-177h-123l243 -1040l271 1040h-148v177h555v-177h-149l272 -1040l240 1040h-117v177h416v-177h-148l-295 -1257h-235l-281 1079l-284 -1079h-246l-287 1257h-147z" />
<glyph unicode="x" horiz-adv-x="1210" d="M31 0v176h121l344 574l-299 507h-150v177h473v-177h-123l242 -405l225 405h-114v177h413v-177h-133l-317 -530l329 -551h138v-176h-490v176h144l-267 451l-248 -451h140v-176h-428z" />
<glyph unicode="y" horiz-adv-x="1163" d="M31 1257v177h440v-177h-115l240 -538l242 538h-115v177h410v-177h-140l-323 -677v-404h155v-176h-489v176h156v404l-326 677h-135z" />
<glyph unicode="z" horiz-adv-x="1069" d="M53 0v145l709 1119h-553v-220h-152v390h947v-148l-711 -1116h567v217h150v-387h-957z" />
<glyph unicode="{" horiz-adv-x="739" d="M92 674v90h98l80 137v574l164 163h213v-82h-178l-88 -88v-577l-111 -172l111 -174v-580l88 -88h178v-82h-213l-164 164v576l-80 139h-98z" />
<glyph unicode="|" horiz-adv-x="294" d="M92 -225v1716h109v-1716h-109z" />
<glyph unicode="}" horiz-adv-x="739" d="M92 -123h178l90 88v580l111 174l-111 172v577l-90 88h-178v82h213l164 -163v-574l80 -137h98v-90h-98l-80 -139v-576l-164 -164h-213v82z" />
<glyph unicode="~" horiz-adv-x="776" d="M94 631v125q46 55 137 55q55 0 161 -46t167 -46q74 0 125 57v-117q-50 -59 -139 -59q-44 0 -161 47t-161 47q-75 0 -129 -63z" />
<glyph unicode="&#xa1;" horiz-adv-x="489" d="M145 0l33 991h133l33 -991h-199zM160 1229v205h170v-205h-170z" />
<glyph unicode="&#xa2;" horiz-adv-x="978" d="M92 328v821l168 168h186v117h93v-117h186l160 -160v-213h-148v148l-73 73h-347l-73 -73v-709l80 -82h335l82 82v201h146v-265l-170 -169h-178v-150h-93v150h-176z" />
<glyph unicode="&#xa3;" horiz-adv-x="1163" d="M92 0v176h150v469h-150v113h150v512l166 164h426l163 -164v-309h-157v251l-76 76h-268l-76 -76v-454h436v-113h-436v-469h500v211h149v-387h-977z" />
<glyph unicode="&#xa5;" horiz-adv-x="1222" d="M92 1434h197l329 -553l332 553h178l-432 -701v-102h381v-99h-381v-204h381v-101h-381v-227h-176v227h-368v101h368v204h-368v99h368v102z" />
<glyph unicode="&#xa6;" horiz-adv-x="702" d="M55 1329v105h240v-105h-53l116 -407l117 407h-53v105h225v-105h-74l-159 -549h-131l-156 549h-72zM131 102v123h102v-78l46 -45h141l45 45v121l-29 29h-223l-82 84v174l96 96h238l98 -98v-96h-104v49l-41 41h-146l-39 -39v-105l27 -28h229l80 -78v-195l-102 -102h-234z " />
<glyph unicode="&#xa8;" horiz-adv-x="722" d="M92 1642v181h150v-181h-150zM481 1642v181h150v-181h-150z" />
<glyph unicode="&#xaa;" horiz-adv-x="675" d="M92 793v225l86 86h322v194l-54 52h-204l-52 -52v-94h-84v125l105 105h268l105 -105v-536l-117 -117h-258zM176 821l62 -61h198l64 61v197h-291l-33 -33v-164z" />
<glyph unicode="&#xab;" horiz-adv-x="669" d="M31 764l188 250h121l-195 -250l195 -250h-121zM332 764l186 250h123l-195 -250l195 -250h-123z" />
<glyph unicode="&#xad;" horiz-adv-x="532" d="M20 674v123h496v-123h-496z" />
<glyph unicode="&#xaf;" horiz-adv-x="659" d="M92 1679v113h475v-113h-475z" />
<glyph unicode="&#xb0;" horiz-adv-x="638" d="M92 1122v221l90 91h275l90 -91v-221l-98 -98h-259zM174 1161l55 -55h181l55 55v144l-47 47h-197l-47 -47v-144z" />
<glyph unicode="&#xb1;" horiz-adv-x="833" d="M92 729v105h270v270h105v-270h270v-105h-270v-270h-105v270h-270zM94 195v104h647v-104h-647z" />
<glyph unicode="&#xb4;" horiz-adv-x="684" d="M92 1624v90l500 123v-92z" />
<glyph unicode="&#xb7;" horiz-adv-x="440" d="M137 631v207h170v-207h-170z" />
<glyph unicode="&#xb8;" horiz-adv-x="342" d="M92 -303l45 262h113l-70 -262h-88z" />
<glyph unicode="&#xba;" horiz-adv-x="649" d="M92 791v538l103 105h256l104 -105v-538l-117 -115h-231zM174 821q56 -56 64 -63h172l63 63v475l-53 54h-191l-55 -54v-475z" />
<glyph unicode="&#xbb;" horiz-adv-x="669" d="M31 514l194 250l-194 250h121l188 -250l-188 -250h-121zM332 514l194 250l-194 250h121l188 -250l-188 -250h-121z" />
<glyph unicode="&#xbf;" horiz-adv-x="989" d="M80 203v276l379 381v144h149v-216l-350 -352v-164l102 -102h291l103 102v127h161v-196l-200 -203h-432zM449 1229v205h167v-205h-167z" />
<glyph unicode="&#xc0;" d="M31 0v176h157l295 1081h-161v177h458l328 -1258h162v-176h-475v176h127l-72 260h-432l-72 -260h123v-176h-438zM317 1745v92l500 -123v-90zM442 547h377l-188 696z" />
<glyph unicode="&#xc1;" d="M31 0v176h157l295 1081h-161v177h458l328 -1258h162v-176h-475v176h127l-72 260h-432l-72 -260h123v-176h-438zM440 1624v90l500 123v-92zM442 547h377l-188 696z" />
<glyph unicode="&#xc2;" d="M31 0v176h157l295 1081h-161v177h458l328 -1258h162v-176h-475v176h127l-72 260h-432l-72 -260h123v-176h-438zM328 1577l258 307h94l252 -307h-123l-176 217l-182 -217h-123zM442 547h377l-188 696z" />
<glyph unicode="&#xc3;" d="M31 0v176h157l295 1081h-161v177h458l328 -1258h162v-176h-475v176h127l-72 260h-432l-72 -260h123v-176h-438zM387 1669v115q42 45 115 45q57 0 135.5 -42t128.5 -42q58 0 106 57v-114q-49 -43 -116 -43q-54 0 -136.5 40.5t-125.5 40.5q-53 0 -107 -57zM442 547h377 l-188 696z" />
<glyph unicode="&#xc4;" d="M31 0v176h157l295 1081h-161v177h458l328 -1258h162v-176h-475v176h127l-72 260h-432l-72 -260h123v-176h-438zM381 1642v181h149v-181h-149zM442 547h377l-188 696zM770 1642v181h150v-181h-150z" />
<glyph unicode="&#xc5;" d="M31 0v176h157l295 1081h-161v177h458l328 -1258h162v-176h-475v176h127l-72 260h-432l-72 -260h123v-176h-438zM442 547h377l-188 696zM481 1649v172l64 63h211l63 -63v-172l-71 -72h-195zM563 1683l25 -24h125l24 24v101l-18 18h-137l-19 -18v-101z" />
<glyph unicode="&#xc6;" horiz-adv-x="1773" d="M55 0v176h158l217 1079h-176v179h1423v-371h-151v192h-504v-436h336v96h127v-325h-127v96h-336v-510h508v193h149v-369h-966v176h133v258h-416l-51 -258h117v-176h-441zM451 545h395v710h-254z" />
<glyph unicode="&#xc7;" horiz-adv-x="1101" d="M92 250v944l238 240h477l203 -203v-277h-179v199l-102 102h-330l-131 -131v-811l138 -137h317l108 109v227h179v-299l-215 -213h-453zM471 -303l45 262h113l-70 -262h-88z" />
<glyph unicode="&#xc8;" horiz-adv-x="1191" d="M92 0v176h150v1079h-150v179h1008v-371h-150v192h-532v-436h362v96h127v-325h-127v96h-362v-510h534v193h150v-369h-1010zM285 1745v92l499 -123v-90z" />
<glyph unicode="&#xc9;" horiz-adv-x="1191" d="M92 0v176h150v1079h-150v179h1008v-371h-150v192h-532v-436h362v96h127v-325h-127v96h-362v-510h534v193h150v-369h-1010zM408 1624v90l499 123v-92z" />
<glyph unicode="&#xca;" horiz-adv-x="1191" d="M92 0v176h150v1079h-150v179h1008v-371h-150v192h-532v-436h362v96h127v-325h-127v96h-362v-510h534v193h150v-369h-1010zM293 1577l258 307h94l252 -307h-123l-176 217l-182 -217h-123z" />
<glyph unicode="&#xcb;" horiz-adv-x="1191" d="M92 0v176h150v1079h-150v179h1008v-371h-150v192h-532v-436h362v96h127v-325h-127v96h-362v-510h534v193h150v-369h-1010zM326 1642v181h149v-181h-149zM715 1642v181h149v-181h-149z" />
<glyph unicode="&#xcc;" horiz-adv-x="743" d="M61 1745v92l500 -123v-90zM133 0v176h150v1081h-150v177h477v-177h-149v-1081h149v-176h-477z" />
<glyph unicode="&#xcd;" horiz-adv-x="743" d="M133 0v176h150v1081h-150v177h477v-177h-149v-1081h149v-176h-477zM182 1624v90l500 123v-92z" />
<glyph unicode="&#xce;" horiz-adv-x="743" d="M70 1577l258 307h94l252 -307h-123l-176 217l-182 -217h-123zM133 0v176h150v1081h-150v177h477v-177h-149v-1081h149v-176h-477z" />
<glyph unicode="&#xcf;" horiz-adv-x="743" d="M102 1642v181h150v-181h-150zM133 0v176h150v1081h-150v177h477v-177h-149v-1081h149v-176h-477zM492 1642v181h149v-181h-149z" />
<glyph unicode="&#xd0;" horiz-adv-x="1232" d="M92 0v176h150v510h-150v135h150v436h-150v177h780l277 -277v-868l-287 -289h-770zM420 176h381l172 172v744l-164 165h-389v-436h287v-135h-287v-510z" />
<glyph unicode="&#xd1;" horiz-adv-x="1366" d="M92 0v176h150v1079h-150v179h383l541 -1094v915h-129v179h436v-179h-152v-1255h-174l-600 1186v-1010h129v-176h-434zM440 1669v115q42 45 115 45q57 0 135.5 -42t128.5 -42q59 0 107 57v-114q-49 -43 -117 -43q-54 0 -136.5 40.5t-125.5 40.5q-53 0 -107 -57z" />
<glyph unicode="&#xd2;" horiz-adv-x="1120" d="M92 231v981l221 222h494l221 -222v-981l-231 -231h-473zM248 1745v92l500 -123v-90zM268 301l125 -125h334l125 125v840l-117 116h-350l-117 -116v-840z" />
<glyph unicode="&#xd3;" horiz-adv-x="1120" d="M92 231v981l221 222h494l221 -222v-981l-231 -231h-473zM268 301l125 -125h334l125 125v840l-117 116h-350l-117 -116v-840zM371 1624v90l499 123v-92z" />
<glyph unicode="&#xd4;" horiz-adv-x="1120" d="M92 231v981l221 222h494l221 -222v-981l-231 -231h-473zM258 1577l258 307h94l252 -307h-123l-176 217l-182 -217h-123zM268 301l125 -125h334l125 125v840l-117 116h-350l-117 -116v-840z" />
<glyph unicode="&#xd5;" horiz-adv-x="1120" d="M92 231v981l221 222h494l221 -222v-981l-231 -231h-473zM268 301l125 -125h334l125 125v840l-117 116h-350l-117 -116v-840zM317 1669v115q42 45 115 45q57 0 135.5 -42t128.5 -42q59 0 107 57v-114q-49 -43 -117 -43q-54 0 -136.5 40.5t-125.5 40.5q-53 0 -107 -57z" />
<glyph unicode="&#xd6;" horiz-adv-x="1120" d="M92 231v981l221 222h494l221 -222v-981l-231 -231h-473zM268 301l125 -125h334l125 125v840l-117 116h-350l-117 -116v-840zM291 1642v181h149v-181h-149zM680 1642v181h149v-181h-149z" />
<glyph unicode="&#xd7;" horiz-adv-x="714" d="M92 530l193 193l-193 190l76 74l190 -192l191 192l74 -74l-193 -190l193 -193l-74 -73l-191 192l-192 -192z" />
<glyph unicode="&#xd8;" horiz-adv-x="1120" d="M92 231v981l221 222h418l27 86l73 -21l-20 -69l217 -218v-981l-231 -231h-402l-24 -84l-76 18l20 72zM268 301l103 -104l309 1060h-295l-117 -116v-840zM446 176h281l125 125v840l-96 96z" />
<glyph unicode="&#xd9;" horiz-adv-x="1271" d="M35 1257v177h457v-177h-130v-956l123 -125h299l123 125v956h-131v177h455v-177h-152v-1038l-217 -219h-459l-219 219v1038h-149zM324 1745v92l499 -123v-90z" />
<glyph unicode="&#xda;" horiz-adv-x="1271" d="M35 1257v177h457v-177h-130v-956l123 -125h299l123 125v956h-131v177h455v-177h-152v-1038l-217 -219h-459l-219 219v1038h-149zM446 1624v90l500 123v-92z" />
<glyph unicode="&#xdb;" horiz-adv-x="1271" d="M35 1257v177h457v-177h-130v-956l123 -125h299l123 125v956h-131v177h455v-177h-152v-1038l-217 -219h-459l-219 219v1038h-149zM334 1577l258 307h94l252 -307h-123l-176 217l-182 -217h-123z" />
<glyph unicode="&#xdc;" horiz-adv-x="1271" d="M35 1257v177h457v-177h-130v-956l123 -125h299l123 125v956h-131v177h455v-177h-152v-1038l-217 -219h-459l-219 219v1038h-149zM367 1642v181h149v-181h-149zM756 1642v181h149v-181h-149z" />
<glyph unicode="&#xdd;" horiz-adv-x="1163" d="M31 1257v177h440v-177h-115l240 -538l242 538h-115v177h410v-177h-140l-323 -677v-404h155v-176h-489v176h156v404l-326 677h-135zM393 1624v90l500 123v-92z" />
<glyph unicode="&#xde;" horiz-adv-x="1193" d="M92 0v176h150v1079h-150v179h481v-179h-155v-81h497l207 -207v-457l-207 -207h-497v-125h157v-178h-483zM418 455h411l117 116v318l-117 117h-411v-551z" />
<glyph unicode="&#xdf;" horiz-adv-x="2158" d="M84 213v262h176v-188l111 -111h336l108 111v297l-74 75h-491l-166 164v408l203 203h491l201 -203v-203h-176v125l-105 104h-333l-105 -104v-254l78 -74h491l164 -159v-453l-213 -213h-483zM1161 213v262h176v-188l111 -111h336l108 111v297l-73 75h-492l-166 164v408 l203 203h491l201 -203v-203h-176v125l-104 104h-334l-105 -104v-254l78 -74h492l164 -159v-453l-213 -213h-484z" />
<glyph unicode="&#xe0;" d="M31 0v176h157l295 1081h-161v177h458l328 -1258h162v-176h-475v176h127l-72 260h-432l-72 -260h123v-176h-438zM317 1745v92l500 -123v-90zM442 547h377l-188 696z" />
<glyph unicode="&#xe1;" d="M31 0v176h157l295 1081h-161v177h458l328 -1258h162v-176h-475v176h127l-72 260h-432l-72 -260h123v-176h-438zM440 1624v90l500 123v-92zM442 547h377l-188 696z" />
<glyph unicode="&#xe2;" d="M31 0v176h157l295 1081h-161v177h458l328 -1258h162v-176h-475v176h127l-72 260h-432l-72 -260h123v-176h-438zM328 1577l258 307h94l252 -307h-123l-176 217l-182 -217h-123zM442 547h377l-188 696z" />
<glyph unicode="&#xe3;" d="M31 0v176h157l295 1081h-161v177h458l328 -1258h162v-176h-475v176h127l-72 260h-432l-72 -260h123v-176h-438zM387 1669v115q42 45 115 45q57 0 135.5 -42t128.5 -42q58 0 106 57v-114q-49 -43 -116 -43q-54 0 -136.5 40.5t-125.5 40.5q-53 0 -107 -57zM442 547h377 l-188 696z" />
<glyph unicode="&#xe4;" d="M31 0v176h157l295 1081h-161v177h458l328 -1258h162v-176h-475v176h127l-72 260h-432l-72 -260h123v-176h-438zM360 1642v181h150v-181h-150zM442 547h377l-188 696zM750 1642v181h149v-181h-149z" />
<glyph unicode="&#xe5;" d="M31 0v176h157l295 1081h-161v177h458l328 -1258h162v-176h-475v176h127l-72 260h-432l-72 -260h123v-176h-438zM442 547h377l-188 696zM461 1649v172l63 63h211l64 -63v-172l-72 -72h-195zM543 1683l24 -24h125l25 24v101l-19 18h-137l-18 -18v-101z" />
<glyph unicode="&#xe6;" horiz-adv-x="1773" d="M55 0v176h158l217 1079h-176v179h1423v-371h-151v192h-504v-436h336v96h127v-325h-127v96h-336v-510h508v193h149v-369h-966v176h133v258h-416l-51 -258h117v-176h-441zM451 545h395v710h-254z" />
<glyph unicode="&#xe7;" horiz-adv-x="1101" d="M92 250v944l238 240h477l203 -203v-277h-179v199l-102 102h-330l-131 -131v-811l138 -137h317l108 109v227h179v-299l-215 -213h-453zM471 -303l45 262h113l-70 -262h-88z" />
<glyph unicode="&#xe8;" horiz-adv-x="1191" d="M92 0v176h150v1079h-150v179h1008v-371h-150v192h-532v-436h362v96h127v-325h-127v96h-362v-510h534v193h150v-369h-1010zM285 1745v92l499 -123v-90z" />
<glyph unicode="&#xe9;" horiz-adv-x="1191" d="M92 0v176h150v1079h-150v179h1008v-371h-150v192h-532v-436h362v96h127v-325h-127v96h-362v-510h534v193h150v-369h-1010zM408 1624v90l499 123v-92z" />
<glyph unicode="&#xea;" horiz-adv-x="1191" d="M92 0v176h150v1079h-150v179h1008v-371h-150v192h-532v-436h362v96h127v-325h-127v96h-362v-510h534v193h150v-369h-1010zM293 1577l258 307h94l252 -307h-123l-176 217l-182 -217h-123z" />
<glyph unicode="&#xeb;" horiz-adv-x="1191" d="M92 0v176h150v1079h-150v179h1008v-371h-150v192h-532v-436h362v96h127v-325h-127v96h-362v-510h534v193h150v-369h-1010zM326 1642v181h149v-181h-149zM715 1642v181h149v-181h-149z" />
<glyph unicode="&#xec;" horiz-adv-x="743" d="M61 1745v92l500 -123v-90zM133 0v176h150v1081h-150v177h477v-177h-149v-1081h149v-176h-477z" />
<glyph unicode="&#xed;" horiz-adv-x="743" d="M133 0v176h150v1081h-150v177h477v-177h-149v-1081h149v-176h-477zM182 1624v90l500 123v-92z" />
<glyph unicode="&#xee;" horiz-adv-x="743" d="M70 1577l258 307h94l252 -307h-123l-176 217l-182 -217h-123zM133 0v176h150v1081h-150v177h477v-177h-149v-1081h149v-176h-477z" />
<glyph unicode="&#xef;" horiz-adv-x="743" d="M102 1642v181h150v-181h-150zM133 0v176h150v1081h-150v177h477v-177h-149v-1081h149v-176h-477zM492 1642v181h149v-181h-149z" />
<glyph unicode="&#xf0;" horiz-adv-x="1232" d="M92 0v176h150v510h-150v135h150v436h-150v177h780l277 -277v-868l-287 -289h-770zM420 176h381l172 172v744l-164 165h-389v-436h287v-135h-287v-510z" />
<glyph unicode="&#xf1;" horiz-adv-x="1366" d="M92 0v176h150v1079h-150v179h383l541 -1094v915h-129v179h436v-179h-152v-1255h-174l-600 1186v-1010h129v-176h-434zM440 1669v115q42 45 115 45q57 0 135.5 -42t128.5 -42q59 0 107 57v-114q-49 -43 -117 -43q-54 0 -136.5 40.5t-125.5 40.5q-53 0 -107 -57z" />
<glyph unicode="&#xf2;" horiz-adv-x="1120" d="M92 231v981l221 222h494l221 -222v-981l-231 -231h-473zM248 1745v92l500 -123v-90zM268 301l125 -125h334l125 125v840l-117 116h-350l-117 -116v-840z" />
<glyph unicode="&#xf3;" horiz-adv-x="1120" d="M92 231v981l221 222h494l221 -222v-981l-231 -231h-473zM268 301l125 -125h334l125 125v840l-117 116h-350l-117 -116v-840zM371 1624v90l499 123v-92z" />
<glyph unicode="&#xf4;" horiz-adv-x="1120" d="M92 231v981l221 222h494l221 -222v-981l-231 -231h-473zM258 1577l258 307h94l252 -307h-123l-176 217l-182 -217h-123zM268 301l125 -125h334l125 125v840l-117 116h-350l-117 -116v-840z" />
<glyph unicode="&#xf5;" horiz-adv-x="1120" d="M92 231v981l221 222h494l221 -222v-981l-231 -231h-473zM268 301l125 -125h334l125 125v840l-117 116h-350l-117 -116v-840zM317 1669v115q42 45 115 45q57 0 135.5 -42t128.5 -42q59 0 107 57v-114q-49 -43 -117 -43q-54 0 -136.5 40.5t-125.5 40.5q-53 0 -107 -57z" />
<glyph unicode="&#xf6;" horiz-adv-x="1120" d="M92 231v981l221 222h494l221 -222v-981l-231 -231h-473zM268 301l125 -125h334l125 125v840l-117 116h-350l-117 -116v-840zM291 1642v181h149v-181h-149zM680 1642v181h149v-181h-149z" />
<glyph unicode="&#xf7;" horiz-adv-x="802" d="M78 670v104h647v-104h-647zM324 338v207h170v-207h-170zM324 895v205h170v-205h-170z" />
<glyph unicode="&#xf8;" horiz-adv-x="1120" d="M92 231v981l221 222h418l27 86l73 -21l-20 -69l217 -218v-981l-231 -231h-402l-24 -84l-76 18l20 72zM268 301l103 -104l309 1060h-295l-117 -116v-840zM446 176h281l125 125v840l-96 96z" />
<glyph unicode="&#xf9;" horiz-adv-x="1271" d="M35 1257v177h457v-177h-130v-956l123 -125h299l123 125v956h-131v177h455v-177h-152v-1038l-217 -219h-459l-219 219v1038h-149zM324 1745v92l499 -123v-90z" />
<glyph unicode="&#xfa;" horiz-adv-x="1271" d="M35 1257v177h457v-177h-130v-956l123 -125h299l123 125v956h-131v177h455v-177h-152v-1038l-217 -219h-459l-219 219v1038h-149zM446 1624v90l500 123v-92z" />
<glyph unicode="&#xfb;" horiz-adv-x="1271" d="M35 1257v177h457v-177h-130v-956l123 -125h299l123 125v956h-131v177h455v-177h-152v-1038l-217 -219h-459l-219 219v1038h-149zM334 1577l258 307h94l252 -307h-123l-176 217l-182 -217h-123z" />
<glyph unicode="&#xfc;" horiz-adv-x="1271" d="M35 1257v177h457v-177h-130v-956l123 -125h299l123 125v956h-131v177h455v-177h-152v-1038l-217 -219h-459l-219 219v1038h-149zM367 1642v181h149v-181h-149zM756 1642v181h149v-181h-149z" />
<glyph unicode="&#xfd;" horiz-adv-x="1163" d="M31 1257v177h440v-177h-115l240 -538l242 538h-115v177h410v-177h-140l-323 -677v-404h155v-176h-489v176h156v404l-326 677h-135zM393 1624v90l500 123v-92z" />
<glyph unicode="&#xfe;" horiz-adv-x="1193" d="M92 0v176h150v1079h-150v179h481v-179h-155v-81h497l207 -207v-457l-207 -207h-497v-125h157v-178h-483zM418 455h411l117 116v318l-117 117h-411v-551z" />
<glyph unicode="&#xff;" horiz-adv-x="1163" d="M31 1257v177h440v-177h-115l240 -538l242 538h-115v177h410v-177h-140l-323 -677v-404h155v-176h-489v176h156v404l-326 677h-135zM311 1642v181h150v-181h-150zM700 1642v181h150v-181h-150z" />
<glyph unicode="&#x152;" horiz-adv-x="1751" d="M92 231v981l219 222h434l117 -119v119h793v-371h-152v192h-504v-436h336v96h127v-325h-127v96h-336v-510h508v193h150v-369h-795v127l-129 -127h-409q-137 133 -232 231zM268 299l123 -123h309q17 18 37.5 38.5t46 45.5t39.5 39v840l-116 116h-322l-117 -116v-840z" />
<glyph unicode="&#x153;" horiz-adv-x="1751" d="M92 231v981l219 222h434l117 -119v119h793v-371h-152v192h-504v-436h336v96h127v-325h-127v96h-336v-510h508v193h150v-369h-795v127l-129 -127h-409q-137 133 -232 231zM268 299l123 -123h309q17 18 37.5 38.5t46 45.5t39.5 39v840l-116 116h-322l-117 -116v-840z" />
<glyph unicode="&#x178;" horiz-adv-x="1163" d="M31 1257v177h440v-177h-115l240 -538l242 538h-115v177h410v-177h-140l-323 -677v-404h155v-176h-489v176h156v404l-326 677h-135zM311 1642v181h150v-181h-150zM700 1642v181h150v-181h-150z" />
<glyph unicode="&#x2c6;" horiz-adv-x="788" d="M92 1577l258 307h94l252 -307h-123l-176 217l-182 -217h-123z" />
<glyph unicode="&#x2dc;" horiz-adv-x="669" d="M92 1669v115q42 45 115 45q57 0 135.5 -42t128.5 -42q59 0 107 57v-114q-49 -43 -117 -43q-54 0 -136.5 40.5t-125.5 40.5q-53 0 -107 -57z" />
<glyph unicode="&#x2000;" horiz-adv-x="942" />
<glyph unicode="&#x2001;" horiz-adv-x="1884" />
<glyph unicode="&#x2002;" horiz-adv-x="942" />
<glyph unicode="&#x2003;" horiz-adv-x="1884" />
<glyph unicode="&#x2004;" horiz-adv-x="628" />
<glyph unicode="&#x2005;" horiz-adv-x="471" />
<glyph unicode="&#x2006;" horiz-adv-x="314" />
<glyph unicode="&#x2007;" horiz-adv-x="314" />
<glyph unicode="&#x2008;" horiz-adv-x="235" />
<glyph unicode="&#x2009;" horiz-adv-x="376" />
<glyph unicode="&#x200a;" horiz-adv-x="104" />
<glyph unicode="&#x2010;" horiz-adv-x="532" d="M20 674v123h496v-123h-496z" />
<glyph unicode="&#x2011;" horiz-adv-x="532" d="M20 674v123h496v-123h-496z" />
<glyph unicode="&#x2012;" horiz-adv-x="532" d="M20 674v123h496v-123h-496z" />
<glyph unicode="&#x2013;" horiz-adv-x="1226" d="M31 674v123h1167v-123h-1167z" />
<glyph unicode="&#x2014;" horiz-adv-x="1828" d="M31 674v123h1771v-123h-1771z" />
<glyph unicode="&#x2018;" horiz-adv-x="393" d="M92 1319v156h144v-119l65 -297l-61 -31z" />
<glyph unicode="&#x2019;" horiz-adv-x="393" d="M92 1059l66 297v119h143v-156l-147 -291z" />
<glyph unicode="&#x201a;" horiz-adv-x="393" d="M92 -248l66 297v119h143v-156l-147 -291z" />
<glyph unicode="&#x201c;" horiz-adv-x="655" d="M92 1319v156h144v-119l65 -297l-61 -31zM354 1319v156h144v-119l65 -297l-61 -31z" />
<glyph unicode="&#x201d;" horiz-adv-x="655" d="M92 1059l66 297v119h143v-156l-147 -291zM354 1059l66 297v119h143v-156l-147 -291z" />
<glyph unicode="&#x201e;" horiz-adv-x="655" d="M92 -248l66 297v119h143v-156l-147 -291zM354 -248l66 297v119h143v-156l-147 -291z" />
<glyph unicode="&#x2022;" horiz-adv-x="694" d="M92 600v256l148 148h213l149 -148v-256l-149 -147h-213z" />
<glyph unicode="&#x2026;" horiz-adv-x="1486" d="M92 0v205h170v-205h-170zM659 0v205h168v-205h-168zM1225 0v205h170v-205h-170z" />
<glyph unicode="&#x202f;" horiz-adv-x="376" />
<glyph unicode="&#x205f;" horiz-adv-x="471" />
<glyph unicode="&#x20ac;" horiz-adv-x="1142" d="M92 563v84h117v158h-117v84h117v305l240 240h581l-51 -177h-463l-129 -131v-237h494l-25 -84h-469v-158h426l-25 -84h-401v-250l137 -137h518v-176h-581l-252 252v311h-117z" />
<glyph unicode="&#x2122;" horiz-adv-x="1064" d="M92 1350v84h359v-84h-138v-529h-84v529h-137zM524 821v613h115l109 -498l108 498h117v-613h-76v430l-100 -430h-99l-98 420v-420h-76z" />
</font>
</defs>
</svg>
